<?xml version="1.0" encoding="utf-8"?>
<!-- Generator: Adobe Illustrator 16.0.0, SVG Export Plug-In . SVG Version: 6.00 Build 0)  -->
<!DOCTYPE svg PUBLIC "-//W3C//DTD SVG 1.1//EN" "http://www.w3.org/Graphics/SVG/1.1/DTD/svg11.dtd">
<svg version="1.1" id="Layer_1" xmlns="http://www.w3.org/2000/svg" xmlns:xlink="http://www.w3.org/1999/xlink" x="0px" y="0px"
	 width="158.5px" height="29.333px" viewBox="0 0 158.5 29.333" enable-background="new 0 0 158.5 29.333" xml:space="preserve">
<g>
	<g>
		<path fill="#A4CE39" d="M28.299,8.369c-0.111-0.08-0.227-0.154-0.344-0.221c-0.035-0.017-0.094-0.014-0.177,0.019l-0.833,0.532
			c-0.242,0.152-0.47,0.303-0.682,0.447L26.26,9.148l-0.016,0.011c-0.367,0.252-0.689,0.49-0.965,0.719
			c-0.129,0.105-0.234,0.185-0.316,0.242c-0.104,0.071-0.254,0.165-0.451,0.277c-0.202,0.115-0.355,0.21-0.459,0.28l-0.002,0.003
			l-0.01,0.006c-0.264,0.18-0.395,0.422-0.395,0.724v2.357l-0.021,0.632l-0.004,0.15L23.6,14.564l-0.23,0.156l-0.998,0.683
			l-0.007,0.006l-0.229,0.156l-0.021,0.016l-0.004-0.143l-0.021-0.603v-2.356c0-0.303-0.133-0.364-0.396-0.183l-0.009,0.005
			l-0.004,0.001c-0.104,0.07-0.256,0.188-0.456,0.347c-0.198,0.157-0.349,0.271-0.452,0.342c-0.082,0.056-0.188,0.12-0.316,0.19
			c-0.277,0.15-0.6,0.354-0.966,0.602l-0.015,0.011l-0.005,0.003c-0.212,0.146-0.438,0.306-0.682,0.486l-0.833,0.608
			c-0.083,0.082-0.141,0.16-0.176,0.225c-0.073,0.14-0.142,0.283-0.212,0.423c-0.082-0.133-0.161-0.267-0.246-0.398
			c-0.041-0.064-0.111-0.135-0.21-0.211l-0.989-0.548c-0.288-0.161-0.558-0.305-0.811-0.435l-0.004-0.005l-0.018-0.009
			c-0.437-0.223-0.819-0.4-1.147-0.529c-0.154-0.063-0.279-0.119-0.377-0.17c-0.123-0.062-0.302-0.166-0.537-0.308
			c-0.24-0.145-0.42-0.25-0.545-0.313l-0.003-0.002l-0.01-0.004c-0.314-0.161-0.47-0.091-0.47,0.211v2.358l-0.025,0.605
			l-0.005,0.143l-0.025-0.012l-0.272-0.143l-0.01-0.004l-1.187-0.61l-0.272-0.14l-0.026-0.013l-0.005-0.148l-0.025-0.633v-2.357
			c0-0.303-0.157-0.534-0.471-0.694l-0.01-0.006l-0.004-0.002c-0.124-0.062-0.304-0.146-0.542-0.247
			c-0.235-0.1-0.415-0.178-0.538-0.242c-0.098-0.053-0.223-0.125-0.377-0.221C8.079,10.246,7.696,10.03,7.26,9.806L7.239,9.799
			L7.235,9.794c-0.253-0.127-0.524-0.26-0.812-0.396L5.434,8.929c-0.098-0.024-0.169-0.025-0.21-0.004
			C5.083,9,4.948,9.081,4.815,9.169c-0.049,0.568-0.049,1.231,0,1.981c0.075,1.135,0.111,2.187,0.111,3.154v1.53
			c0,0.319,0.015,0.809,0.044,1.467c0.028,0.658,0.043,1.146,0.043,1.466v2.356c0.005,0.01,0.009,0.021,0.014,0.028v0.2
			c0.294,0.509,4.252,2.378,5.221,2.764c0.144,0.059,0.212,0.004,0.247-0.052c0.06-0.099,0.075-0.127,0.035-0.407
			c0.029-0.174,0.03-0.39,0.002-0.652c-0.072-0.664-0.124-3.393-0.155-4.121l0.896,0.457l0.898,0.465
			c-0.031,0.697,0.189,3.511,0.116,4.102c-0.028,0.233-0.028,0.453,0.001,0.654c-0.04,0.238-0.025,0.281,0.035,0.443
			c0.034,0.09,0.104,0.213,0.248,0.307c0.967,0.605,4.716,2.697,5.008,2.492v-0.008c0.312,0.127,3.394-2.144,4.199-2.805
			c0.121-0.102,0.178-0.229,0.207-0.324c0.051-0.16,0.062-0.207,0.029-0.442c0.024-0.203,0.025-0.423,0-0.651
			c-0.061-0.589,0.125-3.416,0.1-4.111l0.754-0.521l0.754-0.512c-0.025,0.731-0.068,3.46-0.131,4.129
			c-0.023,0.267-0.022,0.483,0.002,0.653c-0.033,0.281-0.021,0.312,0.028,0.406c0.03,0.051,0.087,0.102,0.21,0.035
			c0.812-0.445,4.143-2.561,4.39-3.087v-0.2c0.005-0.012,0.008-0.021,0.012-0.031v-2.354c0-0.32,0.013-0.812,0.036-1.473
			c0.024-0.658,0.036-1.15,0.036-1.468v-1.529c0-0.968,0.031-2.021,0.095-3.161C28.34,9.596,28.34,8.936,28.299,8.369z"/>
	</g>
</g>
<path fill="#EFEFEF" d="M20.527,10.767c0.26,0.095,0.467,0.19,0.618,0.285c0.279,0.096,0.304,0.118,0.377,0.201
	c0.041,0.047,0.07,0.12-0.032,0.193c-0.684,0.501-3.317,2.747-3.894,2.728l-0.19-0.086c-0.012-0.002-0.022-0.004-0.034-0.007
	L5.75,8.555C5.709,8.427,5.677,8.297,5.652,8.167C5.645,8.128,5.668,8.081,5.725,8.022l0.77-0.481
	c0.224-0.14,0.437-0.267,0.643-0.386L7.14,7.153l0.016-0.009c0.355-0.202,0.686-0.372,0.988-0.511
	c0.141-0.064,0.252-0.12,0.332-0.165c0.101-0.056,0.237-0.147,0.407-0.266C9.058,6.08,9.195,5.993,9.296,5.935L9.3,5.934
	l0.008-0.005c0.255-0.146,0.526-0.154,0.813-0.021l2.236,1.027l0.609,0.258l0.142,0.062l0.021-0.011l0.223-0.128l0.007-0.004
	l0.967-0.554l0.222-0.13l0.021-0.011L14.434,6.35l-0.567-0.281L11.63,5.041c-0.287-0.134-0.302-0.271-0.048-0.419l0.008-0.003
	l0.003-0.002c0.101-0.058,0.259-0.137,0.475-0.241c0.211-0.1,0.367-0.179,0.469-0.236c0.08-0.046,0.173-0.107,0.282-0.187
	c0.23-0.17,0.524-0.359,0.88-0.562l0.014-0.009l0.004-0.001c0.206-0.119,0.432-0.244,0.677-0.371l0.844-0.447
	c0.106-0.034,0.195-0.052,0.27-0.052c0.254-0.002,0.508,0,0.763,0.008c0.606,0.236,1.233,0.523,1.882,0.864
	c0.98,0.512,1.93,0.982,2.848,1.404l1.451,0.667c0.303,0.14,0.749,0.357,1.336,0.651c0.588,0.293,1.031,0.51,1.336,0.648
	l2.023,1.005c0.005,0.004,0.009,0.013,0.012,0.015l0.191,0.089c0.099,0.292-3.076,2.097-3.969,2.499
	c-0.133,0.062-0.273,0.054-0.372,0.038c-0.171-0.029-0.217-0.038-0.432-0.17c-0.201-0.068-0.409-0.16-0.62-0.284
	c-0.537-0.306-3.058-1.51-3.71-1.837l-0.733,0.42l-0.728,0.418C17.492,9.245,19.873,10.526,20.527,10.767L20.527,10.767z"/>
<text transform="matrix(1 0 0 1 32.4985 21.5552)"><tspan x="0" y="0" fill="#A4CE39" font-family="'Arial-Black'" font-size="19.1158">HYPER</tspan><tspan x="73.271" y="0" fill="#F9F7F7" font-family="'Arial-Black'" font-size="19.1158"> PEN</tspan></text>
</svg>
