<?xml version="1.0" standalone="no"?>
<!DOCTYPE svg PUBLIC "-//W3C//DTD SVG 1.1//EN" "http://www.w3.org/Graphics/SVG/1.1/DTD/svg11.dtd" >
<svg xmlns="http://www.w3.org/2000/svg">
<metadata></metadata>
<defs>
<font id="dinroundproregular" horiz-adv-x="1069" >
<font-face units-per-em="2048" ascent="1638" descent="-410" />
<missing-glyph horiz-adv-x="509" />
<glyph horiz-adv-x="2048" />
<glyph horiz-adv-x="2048" />
<glyph unicode="&#xd;" horiz-adv-x="2048" />
<glyph unicode=" "  horiz-adv-x="509" />
<glyph unicode="&#x09;" horiz-adv-x="509" />
<glyph unicode="&#xa0;" horiz-adv-x="509" />
<glyph unicode="!" horiz-adv-x="648" d="M253 96q0 43 29.5 73.5t72.5 30.5t73.5 -30.5t30.5 -73.5t-30.5 -72.5t-73.5 -29.5t-72.5 29.5t-29.5 72.5zM276 509v851q0 53 18 79.5t61 26.5q44 0 61.5 -26t17.5 -80v-851q0 -54 -17.5 -80.5t-61.5 -26.5q-43 0 -61 27t-18 80z" />
<glyph unicode="&#x22;" horiz-adv-x="808" d="M156 1150v220q0 50 16.5 75t57.5 25t58 -25t17 -75v-220q0 -50 -16.5 -75t-58.5 -25q-41 0 -57.5 25t-16.5 75zM504 1150v220q0 50 16.5 75t58.5 25q41 0 57.5 -25t16.5 -75v-220q0 -50 -16.5 -75t-57.5 -25t-58 25t-17 75z" />
<glyph unicode="#" horiz-adv-x="1359" d="M121 527q0 37 22.5 52t68.5 15h138l59 294h-134q-46 0 -68.5 15t-22.5 51q0 37 22.5 52t68.5 15h160l73 365q8 41 24 62t50 21q43 0 59.5 -29t6.5 -81l-67 -338h309l73 365q8 42 23.5 62.5t49.5 20.5q43 0 60 -29t7 -81l-68 -338h113q30 0 49.5 -6t30.5 -21t11 -40 q0 -36 -22.5 -51t-68.5 -15h-138l-59 -294h133q46 0 69 -15t23 -52q0 -36 -23 -51t-69 -15h-159l-77 -386q-8 -41 -24 -62t-50 -21q-43 0 -59.5 29t-6.5 81l70 359h-308l-77 -386q-8 -42 -23.5 -62.5t-50.5 -20.5q-43 0 -59.5 29t-6.5 81l71 359h-112q-46 0 -68.5 15 t-22.5 51zM497 594h308l58 294h-308z" />
<glyph unicode="(" horiz-adv-x="609" d="M195 194v1072q0 64 8 111.5t31 93.5q35 69 102 136q21 21 37 31t35 10q29 0 50 -19.5t21 -48.5q0 -22 -10 -38t-31 -37q-48 -48 -71 -106.5t-23 -146.5v-1045q0 -88 23 -146.5t71 -106.5q21 -21 31 -37t10 -38q0 -29 -21 -48t-50 -19q-8 0 -16 2t-14.5 5.5t-14 9 t-13.5 11t-14 13.5q-37 37 -59.5 66.5t-42.5 68.5q-23 46 -31 93.5t-8 112.5z" />
<glyph unicode=")" horiz-adv-x="609" d="M130 -121q0 22 10 38t31 37q47 47 66 89q28 59 28 164v1045q0 105 -28 164q-19 42 -66 89q-21 21 -31 37t-10 38q0 28 21.5 48t50.5 20q30 0 71 -41q67 -67 102 -136q40 -80 40 -205v-1072q0 -126 -40 -206q-34 -67 -102 -135q-41 -41 -71 -41q-29 0 -50.5 19.5 t-21.5 47.5z" />
<glyph unicode="," horiz-adv-x="488" d="M80 -191q-5 25 9 69l91 274q12 38 28.5 56.5t48.5 18.5q25 0 47 -15t27 -38q5 -26 -9 -70l-92 -273q-13 -39 -28.5 -57.5t-47.5 -18.5q-25 0 -47 15.5t-27 38.5z" />
<glyph unicode="-" horiz-adv-x="872" d="M147 552q0 36 23 51t69 15h395q46 0 68.5 -15t22.5 -51q0 -67 -91 -67h-395q-92 0 -92 67z" />
<glyph unicode="." horiz-adv-x="552" d="M160 111q0 49 33.5 82.5t82.5 33.5t83 -33.5t34 -82.5t-34 -83t-83 -34t-82.5 34t-33.5 83z" />
<glyph unicode="/" horiz-adv-x="724" d="M29.5 -125.5q-16.5 34.5 0.5 82.5l530 1589q23 72 74 72q45 0 61.5 -34.5t-0.5 -82.5l-530 -1589q-23 -72 -74 -72q-45 0 -61.5 34.5z" />
<glyph unicode="0" d="M135 389v680q0 179 113.5 290t286.5 111t286 -111t113 -290v-680q0 -179 -113 -290t-286 -111t-286.5 111t-113.5 290zM285 388q0 -119 66 -193t184 -74t183.5 73.5t65.5 193.5v682q0 119 -65.5 193t-183.5 74t-184 -74t-66 -193v-682z" />
<glyph unicode="1" d="M223 1107q0 18 8.5 32t31.5 37l250 249q41 41 84 41q81 0 81 -106v-1268q0 -49 -17 -74.5t-58 -25.5q-75 0 -75 100v1152l-172 -171q-36 -36 -62 -36q-27 0 -49 21t-22 49z" />
<glyph unicode="2" d="M129 72q0 32 45 90l523 677q50 65 73.5 124.5t23.5 132.5q0 109 -65.5 175t-183.5 66q-94 0 -162 -47.5t-90 -147.5q-9 -41 -26 -65t-54 -24q-32 0 -51 22t-19 55q0 49 28.5 116.5t81.5 118.5q111 105 291 105q183 0 291 -99t108 -274q0 -96 -31 -169.5t-104 -167.5 l-484 -627h536q46 0 68.5 -15t22.5 -51q0 -37 -22.5 -52t-68.5 -15h-615q-58 0 -87 14t-29 58z" />
<glyph unicode="3" horiz-adv-x="1070" d="M97 312q0 40 18.5 64.5t55.5 24.5q62 0 74 -76q18 -107 84 -155.5t181 -48.5q121 0 203 76.5t82 203.5q0 133 -71.5 207t-207.5 75q-83 0 -83 65q0 22 10.5 36.5t28.5 21t44 6.5q125 1 190 71t65 194q0 60 -19.5 109.5t-53.5 82t-80.5 50.5t-101.5 18q-101 0 -161 -44 t-82 -140q-9 -40 -26 -60.5t-51 -20.5q-37 0 -54 30t-12 75q5 50 31.5 102t65.5 89q105 102 289 102q177 0 291.5 -105.5t114.5 -283.5q0 -239 -203 -327q106 -35 165.5 -124t59.5 -233q0 -122 -59 -216.5t-157 -143.5t-217 -49q-113 0 -186 26t-132 82q-43 42 -69.5 98.5 t-26.5 117.5z" />
<glyph unicode="4" d="M61 306q0 20 19 60l521 1037q15 31 31.5 47t42.5 16q27 0 48 -18.5t21 -45.5q0 -25 -18 -62l-486 -971h408v323q0 101 75 101t75 -101v-323h110q46 0 68.5 -15.5t22.5 -51.5q0 -37 -22.5 -51.5t-68.5 -14.5h-110v-144q0 -100 -75 -100t-75 100v144h-490q-97 0 -97 70z " />
<glyph unicode="5" d="M144 306q0 37 19 59t53 22q31 0 48 -17q20 -18 33 -73q44 -176 241 -176q117 0 182 65q51 51 65.5 122.5t14.5 173.5q0 58 -5.5 105t-21.5 95.5t-42.5 81t-72.5 53t-107 20.5q-77 0 -132 -24.5t-96 -83.5q-16 -22 -31.5 -33t-42.5 -11q-33 0 -52.5 23t-19.5 61v599 q0 49 21 70q20 20 69 20h564q46 0 69 -15t23 -51q0 -37 -23 -52t-69 -15h-521v-457q97 99 262 99q160 0 253 -91q124 -124 124 -394q0 -128 -24 -221.5t-95 -164.5q-108 -108 -292 -108q-186 0 -292 100q-45 43 -73.5 102t-28.5 116z" />
<glyph unicode="6" d="M131 409q0 142 91 323l335 671q15 31 31.5 47t42.5 16q27 0 48 -18.5t21 -45.5q0 -25 -18 -62l-266 -533q67 27 147 27q170 0 275 -116.5t105 -297.5q0 -189 -110 -310.5t-294 -121.5q-187 0 -297.5 115.5t-110.5 305.5zM281 414q0 -134 69.5 -213.5t186.5 -79.5 t187.5 79.5t70.5 213.5q0 126 -68.5 209t-189.5 83q-117 0 -186.5 -78.5t-69.5 -213.5z" />
<glyph unicode="7" d="M155 1189v179q0 50 20 70t70 20h619q56 0 83 -15.5t27 -57.5q0 -18 -20 -73l-467 -1249q-14 -39 -27.5 -55t-43.5 -16q-26 1 -47 15.5t-25 37.5t12 68l454 1212h-506v-136q0 -50 -16.5 -75t-58.5 -25q-41 0 -57.5 25t-16.5 75z" />
<glyph unicode="8" d="M103 402q0 122 60 211t161 144q-193 109 -193 322q0 171 114.5 281t289.5 110t289 -110t114 -281q0 -213 -193 -322q101 -55 161 -144t60 -211q0 -182 -123 -298t-308 -116t-308.5 116t-123.5 298zM253 404q0 -122 81 -202.5t201 -80.5t200.5 80.5t80.5 202.5 q0 121 -81 202.5t-200 81.5q-120 0 -201 -81.5t-81 -202.5zM281 1077q0 -113 71 -186.5t183 -73.5t182.5 73.5t70.5 186.5t-70.5 186.5t-182.5 73.5t-183 -73.5t-71 -186.5z" />
<glyph unicode="9" d="M126 1038q0 189 110 310.5t294 121.5q187 0 297.5 -115t110.5 -305q0 -143 -91 -324l-335 -671q-15 -31 -31.5 -47t-42.5 -16q-27 0 -48 18.5t-21 45.5q0 25 18 62l266 533q-64 -26 -147 -26q-170 0 -275 116t-105 297zM274 1044q0 -126 68.5 -208.5t189.5 -82.5 q117 0 186.5 78t69.5 213q0 134 -69.5 213.5t-186.5 79.5t-187.5 -79.5t-70.5 -213.5z" />
<glyph unicode="A" horiz-adv-x="1251" d="M50 65.5q0 8.5 2 16.5q4 15 11 39l474 1263q15 42 33 62t56 20q37 0 55.5 -20.5t33.5 -61.5l473 -1263q8 -24 12 -39q2 -8 2 -16t-2 -18q-4 -18 -19 -33q-23 -23 -58 -23q-22 0 -40 13q-20 16 -37 63l-97 262h-648l-96 -262q-17 -46 -38 -63q-18 -13 -40 -13 q-34 0 -57 23q-14 15 -18 33q-2 9 -2 17.5zM350 465h550l-274 750z" />
<glyph unicode="B" horiz-adv-x="1372" d="M211 95v1268q0 53 21 74t74 21h456q194 0 313 -104.5t119 -284.5q0 -113 -60.5 -198.5t-156.5 -120.5q109 -40 174.5 -130t65.5 -217q0 -194 -119 -298.5t-318 -104.5h-474q-52 0 -74 22q-21 21 -21 73zM369 139h397q135 0 214 73t79 196t-79 194.5t-214 71.5h-397v-535z M369 813h381q128 0 207 64.5t79 189.5t-79 188.5t-207 63.5h-381v-506z" />
<glyph unicode="C" horiz-adv-x="1306" d="M156 729q0 94 1.5 152t6.5 120t14.5 101.5t26 81.5t40.5 75t59 68q141 143 363 143q247 0 391 -175q29 -35 51 -77t32 -76.5t10 -58.5q0 -35 -20 -56t-53 -21q-19 0 -33.5 6t-24 18.5t-15.5 25t-12 31.5q-39 117 -123 180.5t-204 63.5q-149 0 -250 -104 q-67 -68 -85 -165.5t-18 -332.5t18 -332.5t85 -165.5q101 -104 250 -104q120 0 204 63.5t123 180.5q13 39 31 60.5t54 21.5q21 0 37.5 -10t26 -27.5t9.5 -40.5q0 -39 -25 -99.5t-68 -112.5q-144 -175 -391 -175q-222 0 -363 143q-35 35 -59 68t-40.5 75t-26 81.5 t-14.5 101.5t-6.5 120t-1.5 152z" />
<glyph unicode="D" horiz-adv-x="1382" d="M211 95v1268q0 53 21 74t74 21h407q124 0 217.5 -37t167.5 -116q31 -34 54 -73.5t37 -90t22 -91t11.5 -105.5t4 -103.5t0.5 -112.5t-0.5 -112.5t-4 -103t-11.5 -105.5t-22 -91t-37 -89.5t-54 -73.5q-144 -154 -385 -154h-407q-52 0 -74 22q-21 21 -21 73zM369 139h317 q191 0 288 108q33 36 53.5 86t29 120.5t10.5 126t2 149.5t-2 149.5t-10.5 126t-29 120.5t-53.5 86q-97 108 -288 108h-317v-1180z" />
<glyph unicode="E" horiz-adv-x="1228" d="M211 95v1268q0 53 21 74t74 21h721q50 0 73.5 -15t23.5 -54t-23.5 -54.5t-73.5 -15.5h-658v-514h546q48 0 68 -12q30 -20 30 -58q0 -37 -30 -57q-20 -12 -68 -12h-546v-527h658q50 0 73.5 -15t23.5 -54t-23.5 -54.5t-73.5 -15.5h-721q-52 0 -74 22q-21 21 -21 73z" />
<glyph unicode="F" horiz-adv-x="1187" d="M211 98v1265q0 53 21 74t74 21h721q50 0 73.5 -15t23.5 -54t-23.5 -54.5t-73.5 -15.5h-658v-537h547q48 0 68 -12q30 -20 30 -57q0 -38 -30 -58q-20 -12 -68 -12h-547v-545q0 -52 -18 -79t-61 -27t-61 26.5t-18 79.5z" />
<glyph unicode="G" horiz-adv-x="1331" d="M156 729q0 114 2 179.5t10 134t24.5 112.5t43 87t68.5 85q141 143 363 143q247 0 391 -175q43 -52 68 -112.5t25 -99.5q0 -35 -20 -56t-53 -21q-19 0 -33.5 6t-24 18.5t-15.5 25t-12 31.5q-39 117 -123 180.5t-204 63.5q-149 0 -250 -104q-67 -68 -85 -165.5t-18 -332.5 q0 -236 18.5 -333.5t84.5 -164.5q102 -104 252 -104q152 0 253 101q60 61 80 143.5t20 244.5h-269q-46 0 -68 13q-30 20 -30 57t30 57q22 13 68 13h326q52 0 74 -22t22 -74v-26q0 -207 -28.5 -311t-116.5 -191q-144 -144 -361 -144q-219 0 -364 143q-52 52 -81.5 102 t-44.5 126.5t-18.5 151.5t-3.5 218z" />
<glyph unicode="H" horiz-adv-x="1425" d="M211 98v1262q0 54 17.5 80t61.5 26q43 0 61 -26.5t18 -79.5v-555h688v555q0 54 17.5 80t61.5 26t61 -26t17 -80v-1262q0 -53 -17.5 -79.5t-60.5 -26.5t-61 26.5t-18 79.5v568h-688v-568q0 -52 -18 -79t-61 -27t-61 26.5t-18 79.5z" />
<glyph unicode="I" horiz-adv-x="579" d="M211 98v1262q0 54 17.5 80t61.5 26q43 0 61 -26.5t18 -79.5v-1262q0 -52 -18 -79t-61 -27t-61 26.5t-18 79.5z" />
<glyph unicode="J" horiz-adv-x="1016" d="M52 140q0 29 20 50.5t47 21.5t70 -30q77 -55 182 -55q143 0 221 87.5t78 248.5v897q0 54 17.5 80t61.5 26t61 -26t17 -80v-918q0 -208 -126.5 -331t-329.5 -123q-162 0 -278 85q-41 29 -41 67z" />
<glyph unicode="K" horiz-adv-x="1330" d="M211 98v1262q0 54 17.5 80t61.5 26q43 0 61 -26.5t18 -79.5v-726l646 784q39 48 72 48q32 0 54.5 -21.5t22.5 -52.5q0 -27 -35 -69l-346 -421l438 -768q23 -42 23 -71q0 -27 -24 -49t-56 -22q-27 0 -45 16.5t-35 47.5l-410 728l-305 -366v-320q0 -52 -18 -79t-61 -27 t-61 26.5t-18 79.5z" />
<glyph unicode="L" horiz-adv-x="1171" d="M211 95v1265q0 54 17.5 80t61.5 26q43 0 61 -26.5t18 -79.5v-1221h653q50 0 73.5 -15t23.5 -54t-23.5 -54.5t-73.5 -15.5h-716q-52 0 -74 22q-21 21 -21 73z" />
<glyph unicode="M" horiz-adv-x="1671" d="M211 98v1268q0 44 21 72t60 28q36 0 54.5 -15.5t34.5 -50.5l455 -981l454 981q16 35 34.5 50.5t54.5 15.5q39 0 60 -27.5t21 -72.5v-1268q0 -53 -18 -79.5t-61 -26.5t-60.5 26.5t-17.5 79.5v1001l-376 -809q-18 -37 -38 -55t-53 -18q-22 0 -39.5 9t-29 24t-23.5 40 l-375 809v-1001q0 -34 -7 -57t-25 -36t-47 -13q-43 0 -61 26.5t-18 79.5z" />
<glyph unicode="N" horiz-adv-x="1501" d="M211 98v1265q0 48 21 75.5t63 27.5q27 0 46.5 -15t42.5 -47l749 -1106v1062q0 54 17 80t61 26t61.5 -26t17.5 -80v-1265q0 -103 -84 -103q-27 0 -47 15t-42 47l-748 1106v-1062q0 -52 -18 -79t-61 -27t-61 26.5t-18 79.5z" />
<glyph unicode="O" horiz-adv-x="1335" d="M156 729q0 114 2 179t10 134.5t24 113t42.5 86.5t68.5 85q145 143 365 143q219 0 364 -143q42 -42 68.5 -85t43 -87t24.5 -112.5t10 -134t2 -179.5t-2 -179.5t-10 -134t-24.5 -112.5t-43 -87t-68.5 -85q-145 -143 -364 -143q-220 0 -365 143q-42 42 -68.5 85t-42.5 86.5 t-24 113t-10 134.5t-2 179zM313 729q0 -236 18.5 -333.5t84.5 -164.5q101 -104 252 -104t252 104q66 67 84 164t18 334t-18 334t-84 164q-101 104 -252 104t-252 -104q-66 -67 -84.5 -164.5t-18.5 -333.5z" />
<glyph unicode="P" horiz-adv-x="1295" d="M211 98v1265q0 53 21 74t74 21h450q200 0 326 -117.5t126 -310.5q0 -194 -126 -312t-326 -118h-387v-502q0 -52 -18 -79t-61 -27t-61 26.5t-18 79.5zM369 739h374q141 0 224 75t83 216t-83 215t-224 74h-374v-580z" />
<glyph unicode="Q" horiz-adv-x="1335" d="M156 729q0 114 2 179t10 134.5t24 113t42.5 86.5t68.5 85q145 143 365 143q219 0 364 -143q35 -35 59 -68t40.5 -75t26 -81t14.5 -101.5t6.5 -120.5t1.5 -152q0 -100 -1.5 -160.5t-7 -123.5t-17 -105t-30.5 -82.5t-47 -76.5l106 -105q35 -35 35 -66q0 -23 -20 -44 q-20 -20 -43 -20q-30 0 -66 36l-107 105q-134 -99 -314 -99q-220 0 -365 143q-42 42 -68.5 85t-42.5 86.5t-24 113t-10 134.5t-2 179zM313 729q0 -236 18.5 -333.5t84.5 -164.5q101 -104 250 -104q120 0 206 70l-136 137q-19 19 -28.5 35.5t-7 36t20.5 37.5q20 20 43 20 q31 0 66 -35l131 -130q38 62 49.5 154t11.5 277q0 237 -18 334t-84 164q-101 104 -252 104t-252 -104q-66 -67 -84.5 -164.5t-18.5 -333.5z" />
<glyph unicode="R" horiz-adv-x="1345" d="M211 98v1265q0 53 21 74t74 21h466q194 0 314 -109t120 -296q0 -156 -86.5 -258t-231.5 -133l302 -528q23 -42 23 -71q0 -27 -23.5 -49t-55.5 -22q-27 0 -45 16.5t-35 47.5l-338 591h-347v-549q0 -52 -18 -79t-61 -27t-61 26.5t-18 79.5zM369 784h389q132 0 211.5 68.5 t79.5 198.5t-79.5 199t-211.5 69h-389v-535z" />
<glyph unicode="S" horiz-adv-x="1205" d="M105 200q0 29 20.5 50.5t49.5 21.5q32 0 73 -32q82 -62 159 -87.5t184 -25.5q161 0 253 71t92 198q0 121 -71 184q-35 30 -72.5 44t-117.5 26l-171 27q-89 13 -150 38t-115 73q-113 100 -113 272q0 187 126 298.5t341 111.5q111 0 186.5 -22t170.5 -80q61 -36 61 -80 q0 -28 -19.5 -48t-47.5 -20q-26 0 -72 28q-73 50 -134 68.5t-151 18.5q-145 0 -227 -73t-82 -195q0 -114 67 -171q40 -34 83 -52t113 -28l160 -24q102 -17 162 -39.5t106 -62.5q122 -103 122 -289q0 -190 -138 -301.5t-367 -111.5q-133 0 -223.5 27.5t-191.5 95.5 q-66 44 -66 89z" />
<glyph unicode="T" horiz-adv-x="1120" d="M52 1389q0 37 30 57q20 12 68 12h821q47 0 67 -12q30 -20 30 -57q0 -38 -24 -54t-73 -16h-332v-1221q0 -53 -18 -79.5t-61 -26.5q-79 0 -79 106v1221h-331q-48 0 -68 12q-30 20 -30 58z" />
<glyph unicode="U" horiz-adv-x="1400" d="M189 481v879q0 53 18 79.5t61 26.5q44 0 61.5 -26t17.5 -80v-866q0 -166 96 -266.5t256 -100.5t257.5 100.5t97.5 266.5v866q0 54 17.5 80t61.5 26t61 -26t17 -80v-879q0 -217 -144.5 -355t-367.5 -138t-366.5 138t-143.5 355z" />
<glyph unicode="V" horiz-adv-x="1112" d="M38 1398q0 8 1 15q5 23 27 38t47 15q33 0 48 -18t28 -57l367 -1122l367 1122q13 39 28 57t48 18q25 0 47 -15t27 -38q1 -7 1 -15q0 -23 -10 -55l-422 -1266q-13 -41 -32 -63t-54 -22q-36 0 -54.5 21.5t-31.5 63.5l-422 1266q-10 32 -10 55z" />
<glyph unicode="W" horiz-adv-x="1761" d="M66 1398q0 12 3 20q6 22 26.5 35t43.5 13q37 0 52 -19.5t26 -64.5l276 -1102l301 1105q10 40 29 59.5t58 19.5q38 0 57.5 -20t29.5 -59l301 -1105l275 1102q11 45 26 64.5t52 19.5q15 0 29.5 -5.5t26 -16.5t15.5 -26q3 -8 3 -20q0 -20 -8 -51l-318 -1265 q-22 -90 -93.5 -90t-94.5 90l-301 1097l-301 -1097q-22 -90 -95 -90q-71 0 -94 90l-317 1265q-8 31 -8 51z" />
<glyph unicode="X" horiz-adv-x="1119" d="M86 63q0 27 24 71l353 614l-330 576q-23 42 -23 71q0 27 24 49t55 22q27 0 45 -16.5t35 -47.5l290 -523l293 523q17 31 35 47.5t45 16.5q32 0 56 -22t24 -49t-24 -71l-334 -575l356 -615q23 -42 23 -71q0 -27 -24 -49t-56 -22q-27 0 -45 16.5t-35 47.5l-314 557 l-313 -557q-17 -31 -35 -47.5t-45 -16.5q-32 0 -56 22t-24 49z" />
<glyph unicode="Y" horiz-adv-x="1032" d="M48 1400v8q3 32 40 50q16 8 35 8q29 0 44 -15t32 -50l317 -635l318 635q12 25 19.5 36.5t21.5 20t34 8.5q30 0 51 -19q24 -21 24 -48q0 -24 -19 -64l-370 -739v-498q0 -53 -18 -79.5t-61 -26.5q-79 0 -79 106v498l-369 739q-20 35 -20 65z" />
<glyph unicode="Z" horiz-adv-x="1125" d="M97 76q0 26 27 72l707 1171h-606q-49 0 -73 16t-24 54q0 37 30 57q20 12 67 12h700q98 0 98 -76q0 -24 -28 -72l-705 -1171h636q47 0 67 -12q30 -20 30 -57q0 -38 -24 -54t-73 -16h-730q-99 0 -99 76z" />
<glyph unicode="a" horiz-adv-x="1078" d="M101 286q0 134 93 213t256 79h305v81q0 118 -59 175.5t-189 57.5q-74 0 -124.5 -20.5t-103.5 -68.5q-31 -27 -63 -27q-27 0 -45 19t-18 47q0 49 96 112q105 66 259 66q195 0 295 -86t100 -251v-591q0 -49 -17 -74.5t-58 -25.5q-74 0 -74 100v2q-61 -59 -125.5 -82.5 t-163.5 -23.5q-104 0 -172 21.5t-115 70.5q-77 80 -77 206zM248 287q0 -173 232 -173q74 0 126.5 13.5t95.5 54.5q53 51 53 175v108h-289q-108 0 -163 -45.5t-55 -132.5z" />
<glyph unicode="b" horiz-adv-x="1121" d="M185 92v1274q0 100 75 100q41 0 58 -25t17 -75v-475q59 74 126.5 101.5t158.5 27.5q157 0 245 -88q125 -125 125 -428t-125 -428q-88 -88 -245 -88q-91 0 -158 29t-127 104v-29q0 -49 -17 -74.5t-58 -25.5q-75 0 -75 100zM335 504q0 -66 5 -116.5t21 -103t43 -86.5 t73.5 -55.5t110.5 -21.5t110.5 21.5t73.5 55.5t43 86.5t21 103t5 116.5t-5 116.5t-21 103t-43 86.5t-73.5 55.5t-110.5 21.5t-110.5 -21.5t-73.5 -55.5t-43 -86.5t-21 -103t-5 -116.5z" />
<glyph unicode="c" horiz-adv-x="1001" d="M129 504q0 250 122.5 383t322.5 133q140 0 246 -83q41 -33 56.5 -51t15.5 -44t-20.5 -46.5t-47.5 -20.5q-16 0 -29.5 8t-41.5 31q-50 41 -89.5 57t-89.5 16q-151 0 -230 -112q-35 -50 -50 -112.5t-15 -158.5t15 -158.5t50 -112.5q79 -112 230 -112q51 0 92 16t87 57 q43 38 71 38q27 0 47.5 -20t20.5 -46q0 -25 -17.5 -46t-54.5 -50q-105 -82 -246 -82q-200 0 -322.5 133t-122.5 383z" />
<glyph unicode="d" horiz-adv-x="1121" d="M131 504q0 303 125 428q41 41 105.5 64.5t140.5 23.5q90 0 157.5 -27.5t126.5 -101.5v475q0 100 75 100q41 0 58 -25t17 -75v-1274q0 -49 -17 -74.5t-58 -25.5q-75 0 -75 100v29q-60 -76 -126.5 -104.5t-157.5 -28.5q-76 0 -140.5 23.5t-105.5 64.5q-125 125 -125 428z M281 504q0 -66 5 -116.5t21 -103t43 -86.5t73.5 -55.5t110.5 -21.5t110.5 21.5t73.5 55.5t42.5 86.5t20.5 103t5 116.5t-5 116.5t-20.5 103t-42.5 86.5t-73.5 55.5t-110.5 21.5t-110.5 -21.5t-73.5 -55.5t-43 -86.5t-21 -103t-5 -116.5z" />
<glyph unicode="e" horiz-adv-x="1083" d="M129 504q0 247 111.5 381.5t304.5 134.5q190 0 300.5 -127t112.5 -340q0 -48 -20 -68q-19 -19 -66 -19h-594q0 -166 77 -257.5t222 -91.5q131 0 216 72q25 21 38.5 28.5t30.5 7.5q24 0 44 -19.5t20 -44.5q0 -49 -105 -115q-97 -58 -251 -58q-207 0 -324 128.5t-117 387.5 zM278 579h534q-4 96 -32 163q-29 70 -91 110.5t-144 40.5t-145 -41t-91 -110q-27 -64 -31 -163z" />
<glyph unicode="f" horiz-adv-x="648" d="M72 950q0 58 79 58h70v184q0 118 66.5 194t189.5 76h27q47 0 70.5 -14t23.5 -50q0 -65 -94 -65q-133 0 -133 -146v-179h148q79 0 79 -58q0 -57 -79 -57h-148v-801q0 -100 -75 -100q-41 0 -58 25.5t-17 74.5v801h-70q-40 0 -59.5 13t-19.5 44z" />
<glyph unicode="g" horiz-adv-x="1119" d="M131 512q0 297 123 420q40 40 106 64t142 24q91 0 157.5 -28t124.5 -103v26q0 101 75 101q41 0 58 -25.5t17 -75.5v-945q0 -191 -114.5 -311.5t-311.5 -120.5q-133 0 -224 49q-39 21 -73 51t-34 60t20 49t43 19q26 0 74 -38q76 -61 191 -61q139 0 209 85.5t70 222.5v161 q-57 -74 -126 -104t-158 -30q-75 0 -140 24.5t-106 65.5q-123 123 -123 420zM281 511q0 -63 5 -111.5t20.5 -100t42 -85.5t73.5 -55.5t110 -21.5t109.5 22t73 55.5t42 85.5t20.5 100.5t5 111.5t-5 111.5t-20.5 100t-42 85.5t-73 56t-109.5 22t-110 -22t-73.5 -56t-42 -85.5 t-20.5 -100.5t-5 -112z" />
<glyph unicode="h" horiz-adv-x="1156" d="M185 92v1274q0 100 75 100q41 0 58 -25t17 -75v-469q111 123 282 123t268 -100.5t97 -272.5v-555q0 -49 -17 -74.5t-58 -25.5q-74 0 -74 100v531q0 131 -64 197.5t-182 66.5t-185 -67t-67 -197v-531q0 -49 -17 -74.5t-58 -25.5q-75 0 -75 100z" />
<glyph unicode="i" horiz-adv-x="530" d="M164 1385q0 42 29.5 72t71.5 30t72 -30t30 -72t-30 -71.5t-72 -29.5t-71.5 29.5t-29.5 71.5zM190 92v823q0 101 75 101q41 0 58 -25.5t17 -75.5v-823q0 -49 -17 -74.5t-58 -25.5q-75 0 -75 100z" />
<glyph unicode="j" horiz-adv-x="530" d="M-37 -387q0 36 23.5 50t70.5 14q133 0 133 147v1091q0 101 75 101q41 0 58 -25.5t17 -75.5v-1096q0 -118 -66.5 -194.5t-189.5 -76.5h-27q-94 0 -94 65zM164 1385q0 42 29.5 72t71.5 30t72 -30t30 -72t-30 -71.5t-72 -29.5t-71.5 29.5t-29.5 71.5z" />
<glyph unicode="k" horiz-adv-x="1052" d="M185 92v1274q0 100 75 100q41 0 58 -25t17 -75v-882l431 492q22 25 37 34.5t34 9.5q27 0 47 -20t20 -46q0 -27 -36 -68l-234 -268l312 -492q26 -43 26 -64q0 -27 -21.5 -48.5t-52.5 -21.5q-23 0 -39 13t-36 44l-293 464l-195 -222v-199q0 -49 -17 -74.5t-58 -25.5 q-75 0 -75 100z" />
<glyph unicode="l" horiz-adv-x="604" d="M180 270v1096q0 100 75 100t75 -100v-1091q0 -146 133 -146q47 0 70.5 -14t23.5 -50t-23.5 -50.5t-70.5 -14.5h-27q-123 0 -189.5 76t-66.5 194z" />
<glyph unicode="m" horiz-adv-x="1805" d="M185 92v823q0 101 75 101q41 0 58 -25.5t17 -75.5v-18q108 123 285 123q217 0 309 -168q118 168 332 168q170 0 270 -103.5t100 -271.5v-553q0 -49 -17 -74.5t-58 -25.5q-74 0 -74 100v529q0 130 -66 198t-182 68q-113 0 -182 -66.5t-69 -183.5v-545q0 -49 -17 -74.5 t-58 -25.5q-74 0 -74 100v529q0 130 -65.5 198t-181.5 68q-117 0 -184.5 -68.5t-67.5 -197.5v-529q0 -49 -17 -74.5t-58 -25.5q-75 0 -75 100z" />
<glyph unicode="n" horiz-adv-x="1157" d="M185 92v823q0 101 75 101q41 0 58 -25.5t17 -75.5v-18q111 123 282 123q172 0 269 -102t97 -274v-552q0 -50 -17 -75t-58 -25q-40 0 -57 25.5t-17 74.5v526q0 132 -65 200.5t-182 68.5q-118 0 -185 -69.5t-67 -199.5v-526q0 -50 -17 -75t-58 -25q-75 0 -75 100z" />
<glyph unicode="o" horiz-adv-x="1089" d="M131 504q0 133 26 230t98 171q115 115 290 115t290 -115q72 -73 97.5 -170t25.5 -231q0 -133 -25.5 -231t-97.5 -171q-114 -114 -290 -114t-290 114q-72 73 -98 171t-26 231zM281 504q0 -106 16.5 -184t64.5 -126q73 -73 183 -73q109 0 182 73q48 48 65 126.5t17 183.5 t-17 183t-65 126q-74 74 -182 74q-109 0 -183 -74q-48 -48 -64.5 -125.5t-16.5 -183.5z" />
<glyph unicode="p" horiz-adv-x="1121" d="M185 -358v1273q0 101 75 101q41 0 58 -25.5t17 -75.5v-28q60 75 127 104t158 29q157 0 245 -88q125 -125 125 -428t-125 -428q-88 -88 -245 -88q-91 0 -158.5 27.5t-126.5 101.5v-475q0 -50 -17 -75.5t-58 -25.5q-75 0 -75 101zM335 504q0 -66 5 -116.5t21 -103t43 -86.5 t73.5 -55.5t110.5 -21.5t110.5 21.5t73.5 55.5t43 86.5t21 103t5 116.5t-5 116.5t-21 103t-43 86.5t-73.5 55.5t-110.5 21.5t-110.5 -21.5t-73.5 -55.5t-43 -86.5t-21 -103t-5 -116.5z" />
<glyph unicode="q" horiz-adv-x="1121" d="M131 504q0 303 125 428q41 41 105.5 64.5t140.5 23.5q91 0 157.5 -28.5t126.5 -104.5v28q0 101 75 101q41 0 58 -25.5t17 -75.5v-1273q0 -50 -17 -75.5t-58 -25.5q-75 0 -75 101v475q-59 -74 -126.5 -101.5t-157.5 -27.5q-76 0 -140.5 23.5t-105.5 64.5 q-125 125 -125 428zM281 504q0 -66 5 -116.5t21 -103t43 -86.5t73.5 -55.5t110.5 -21.5t110.5 21.5t73.5 55.5t42.5 86.5t20.5 103t5 116.5t-5 116.5t-20.5 103t-42.5 86.5t-73.5 55.5t-110.5 21.5t-110.5 -21.5t-73.5 -55.5t-43 -86.5t-21 -103t-5 -116.5z" />
<glyph unicode="r" horiz-adv-x="864" d="M185 92v824q0 101 75 101q41 0 58 -25.5t17 -75.5v-29q42 61 116.5 97t158.5 36q106 0 182 -48q56 -34 56 -76q0 -30 -22 -52t-51 -22q-21 0 -70 29q-59 36 -126 36q-111 0 -177.5 -76t-66.5 -196v-523q0 -49 -17 -74.5t-58 -25.5q-75 0 -75 100z" />
<glyph unicode="s" horiz-adv-x="1015" d="M99 154q0 26 19.5 46t47.5 20q26 0 67 -29q105 -75 266 -75q130 0 199 44.5t69 132.5q0 67 -41 102.5t-127 43.5l-166 16q-301 26 -301 270q0 135 103.5 215.5t267.5 80.5q155 0 281 -64q33 -16 47.5 -30.5t14.5 -43.5q0 -24 -20 -43t-44 -19q-18 0 -56 20 q-103 54 -225 54q-107 0 -166.5 -43.5t-59.5 -122.5q0 -68 43 -102.5t135 -42.5l161 -16q70 -6 122 -23t92.5 -48t61.5 -81.5t21 -120.5q0 -144 -112 -225.5t-298 -81.5q-114 0 -198.5 23.5t-154.5 72.5q-49 32 -49 70z" />
<glyph unicode="t" horiz-adv-x="688" d="M67 950q0 58 78 58h71v216q0 49 17 74.5t58 25.5q75 0 75 -100v-216h148q79 0 79 -58q0 -57 -79 -57h-148v-618q0 -146 133 -146q47 0 70.5 -14t23.5 -50t-23.5 -50.5t-70.5 -14.5h-27q-123 0 -189.5 76t-66.5 194v623h-71q-39 0 -58.5 13t-19.5 44z" />
<glyph unicode="u" horiz-adv-x="1157" d="M174 364v551q0 50 17 75.5t58 25.5q75 0 75 -101v-526q0 -132 64.5 -200t181.5 -68q118 0 185 69t67 199v526q0 101 75 101t75 -101v-823q0 -100 -75 -100t-75 100v19q-111 -123 -282 -123t-268.5 102.5t-97.5 273.5z" />
<glyph unicode="v" horiz-adv-x="894" d="M58 951q0 12 3 21q7 19 26.5 31.5t41.5 12.5q51 0 74 -72l244 -733l245 733q23 72 74 72q22 0 41.5 -12.5t26.5 -31.5q3 -9 3 -21q0 -21 -10 -52l-282 -817q-15 -46 -36 -68t-62 -22t-61.5 22.5t-35.5 67.5l-282 817q-10 31 -10 52z" />
<glyph unicode="w" horiz-adv-x="1472" d="M72 945q0 23 8 39q15 32 61 32q31 0 47.5 -20t26.5 -58l210 -733l211 704q21 69 45 88q23 20 55 20q45 0 64.5 -26t36.5 -82l211 -704l209 733q10 38 26.5 58t47.5 20q24 0 43.5 -13.5t25.5 -34.5q2 -8 2 -18q0 -20 -8 -51l-238 -797q-17 -58 -37.5 -84t-66.5 -26 t-66.5 26.5t-37.5 83.5l-212 696l-212 -696q-16 -57 -37 -83.5t-66 -26.5q-47 0 -67.5 26t-37.5 84l-237 797q-7 25 -7 46z" />
<glyph unicode="x" horiz-adv-x="901" d="M90 63q0 22 26 63l240 380l-238 376q-26 44 -26 63q0 27 22.5 49.5t52.5 22.5q23 0 39 -13.5t36 -44.5l209 -342l208 342q20 31 36 44.5t39 13.5q30 0 52.5 -22.5t22.5 -49.5q0 -19 -26 -63l-239 -376l241 -380q26 -41 26 -63q0 -28 -22.5 -49.5t-52.5 -21.5 q-23 0 -39 13t-35 44l-211 345l-211 -345q-19 -30 -35.5 -43.5t-39.5 -13.5q-30 0 -52.5 21.5t-22.5 49.5z" />
<glyph unicode="y" horiz-adv-x="893" d="M58 951q0 12 3 21q7 19 26.5 31.5t41.5 12.5q51 0 74 -72l243 -744l245 744q23 72 74 72q22 0 41.5 -12.5t26.5 -31.5q3 -9 3 -21q0 -21 -10 -52l-395 -1142q-26 -78 -72 -121q-71 -68 -185 -68q-46 0 -69 14t-23 52q0 67 78 67q58 0 93.5 27.5t58.5 96.5l64 190 l-308 884q-10 31 -10 52z" />
<glyph unicode="z" horiz-adv-x="930" d="M91 68q0 30 31 72l525 734h-438q-46 0 -68.5 15.5t-22.5 51.5t22.5 51.5t68.5 15.5h531q97 0 97 -67q0 -32 -30 -73l-526 -735h468q46 0 68.5 -15t22.5 -51q0 -37 -22.5 -52t-68.5 -15h-562q-96 0 -96 68z" />
<glyph unicode="|" horiz-adv-x="667" d="M259 -59v1577q0 49 17 74.5t58 25.5q75 0 75 -100v-1577q0 -101 -75 -101q-41 0 -58 25.5t-17 75.5z" />
<glyph unicode="}" horiz-adv-x="723" d="M88 -83q0 35 24 51.5t64 16.5q38 0 56.5 5t32.5 19q17 17 23.5 46t6.5 86v383q0 57 17 97.5t43.5 64t68.5 43.5q-64 31 -96.5 76.5t-32.5 128.5v384q0 57 -6.5 86t-23.5 46q-9 9 -20 14.5t-27.5 8t-41.5 2.5q-88 0 -88 67q0 37 24.5 51.5t70.5 14.5h21q126 0 182.5 -63 t56.5 -199v-391q0 -147 111 -158q76 -6 76 -68q0 -61 -76 -67q-111 -11 -111 -159v-389q0 -137 -56 -199.5t-183 -62.5h-21q-47 0 -71 14t-24 51z" />
<glyph unicode="~" horiz-adv-x="1103" d="M110 514q0 35 40 72q55 53 104.5 73t110.5 20q33 0 74 -11t65 -21t77 -33q103 -48 158 -48q40 0 70 13t68 48q27 26 55 26q24 0 43 -19t19 -43q0 -35 -41 -73q-54 -53 -103.5 -72.5t-110.5 -19.5q-76 0 -217 64q-38 17 -56.5 25t-47.5 15.5t-54 7.5q-39 0 -69 -13 t-68 -48q-29 -26 -56 -26q-24 0 -42.5 19.5t-18.5 43.5z" />
<glyph unicode="&#xa1;" horiz-adv-x="644" d="M189 911q0 43 30 73t73 30t73 -30t30 -73t-30 -73t-73 -30t-73 30t-30 73zM213 -352v851q0 53 18 79.5t61 26.5q79 0 79 -106v-851q0 -53 -18 -80t-61 -27q-44 0 -61.5 27t-17.5 80z" />
<glyph unicode="&#xa2;" horiz-adv-x="1001" d="M129 752q0 223 98.5 353.5t265.5 156.5v106q0 46 14.5 68.5t51.5 22.5q36 0 51.5 -22.5t15.5 -68.5v-103q104 -10 194 -80q41 -33 56.5 -51t15.5 -44t-20.5 -46.5t-47.5 -20.5q-16 0 -29.5 8t-41.5 31q-67 56 -130 68v-758q64 12 130 69q44 39 71 39t47.5 -20t20.5 -46 t-17.5 -47.5t-54.5 -49.5q-86 -68 -194 -79v-155q0 -46 -15.5 -68.5t-51.5 -22.5q-37 0 -51.5 22.5t-14.5 68.5v159q-167 26 -265.5 157t-98.5 353zM279 752q0 -322 217 -374v747q-94 -21 -152 -102q-35 -50 -50 -112.5t-15 -158.5z" />
<glyph unicode="&#xa3;" horiz-adv-x="1126" d="M93 730q0 57 79 57h67v229q0 208 126.5 331t328.5 123q167 0 275 -81q48 -37 48 -76q0 -27 -19 -49t-45 -22q-24 0 -64 28q-46 33 -90.5 47.5t-104.5 14.5q-143 0 -220.5 -87.5t-77.5 -249.5v-208h239q79 0 79 -57t-79 -57h-239v-534h544q50 0 73.5 -15t23.5 -54 t-23.5 -54.5t-73.5 -15.5h-606q-52 0 -74 22q-21 21 -21 73v578h-67q-79 0 -79 57z" />
<glyph unicode="&#xaa;" horiz-adv-x="919" d="M114 880q0 107 73 169.5t205 62.5h236v75q0 88 -48 131t-153 43q-61 0 -102.5 -19t-81.5 -61q-20 -20 -46 -20q-21 0 -35 15t-14 38q0 42 80 98q74 52 201 52q158 0 237.5 -68.5t79.5 -199.5v-468q0 -42 -13.5 -62.5t-46.5 -20.5q-26 0 -41.5 17t-15.5 46v19 q-50 -47 -100.5 -65.5t-128.5 -18.5q-136 0 -211 59t-75 178zM230 882q0 -69 44 -102.5t139 -33.5q121 0 177 56q38 39 38 135v86h-221q-177 0 -177 -141z" />
<glyph unicode="&#xad;" horiz-adv-x="872" d="M147 552q0 36 23 51t69 15h395q46 0 68.5 -15t22.5 -51q0 -67 -91 -67h-395q-92 0 -92 67z" />
<glyph unicode="&#xb3;" horiz-adv-x="651" d="M70 778q0 31 15 49t42 18q37 0 47 -39q15 -59 54.5 -92t98.5 -33q64 0 105 40.5t41 108.5t-38.5 108t-111.5 40q-26 0 -41 14.5t-15 36.5t14.5 37t41.5 15q66 0 101 37.5t35 100.5q0 65 -39 102.5t-94 37.5q-96 0 -124 -76q-2 -4 -9 -26t-11 -30.5t-16 -18.5t-29 -10 q-26 0 -41 18.5t-15 47.5q0 44 31 96q66 105 214 105q113 0 182.5 -66.5t69.5 -176.5q0 -135 -111 -187q125 -53 125 -206q0 -121 -75 -188t-190 -67t-186 59.5t-71 144.5z" />
<glyph unicode="&#xb9;" horiz-adv-x="651" d="M132.5 1197.5q-39.5 39.5 14.5 93.5l139 139q36 36 74 36q33 0 50 -18q16 -18 16 -59v-732q0 -82 -59 -82q-60 0 -60 82v636l-81 -81q-54 -54 -93.5 -14.5z" />
<glyph unicode="&#xba;" horiz-adv-x="932" d="M139 1055q0 106 21.5 184.5t78.5 135.5q89 89 228 89q138 0 227 -89q57 -57 78.5 -135.5t21.5 -184.5t-21.5 -185t-78.5 -136q-89 -89 -227 -89q-139 0 -228 89q-57 57 -78.5 136t-21.5 185zM258 1055q0 -84 12 -145t51 -100q59 -59 146 -59q86 0 145 59 q39 39 51.5 100.5t12.5 144.5t-12.5 144t-51.5 100q-60 60 -145 60q-86 0 -146 -60q-39 -39 -51 -99.5t-12 -144.5z" />
<glyph unicode="&#xdf;" horiz-adv-x="1138" d="M185 92v979q0 190 111 294.5t302 104.5q112 0 199 -34.5t141.5 -112.5t54.5 -191q0 -160 -128 -245q73 -39 101.5 -93t28.5 -153v-357q0 -129 -78 -206.5t-206 -77.5h-43q-45 0 -67.5 15t-22.5 51t23 50.5t67 14.5h17q78 0 119.5 43.5t41.5 124.5v354q0 80 -41 123 t-118 43h-29q-41 0 -60.5 14.5t-19.5 47.5t19.5 47t60.5 14h13q78 0 126.5 50t48.5 134q0 94 -64 155q-63 60 -194 60q-253 0 -253 -277v-972q0 -50 -17 -75t-58 -25q-75 0 -75 100z" />
<glyph unicode="&#xe0;" horiz-adv-x="1078" d="M101 286q0 134 93 213t256 79h305v81q0 118 -59 175.5t-189 57.5q-74 0 -124.5 -20.5t-103.5 -68.5q-31 -27 -63 -27q-27 0 -45 19t-18 47q0 49 96 112q105 66 259 66q195 0 295 -86t100 -251v-591q0 -49 -17 -74.5t-58 -25.5q-74 0 -74 100v2q-61 -59 -125.5 -82.5 t-163.5 -23.5q-104 0 -172 21.5t-115 70.5q-77 80 -77 206zM248 287q0 -173 232 -173q74 0 126.5 13.5t95.5 54.5q53 51 53 175v108h-289q-108 0 -163 -45.5t-55 -132.5zM311 1481q0 27 21.5 48.5t52.5 21.5q23 0 39.5 -13t35.5 -44l99 -159q26 -43 26 -63 q0 -28 -21.5 -49.5t-52.5 -21.5q-23 0 -39.5 13t-35.5 44l-99 159q-26 43 -26 64z" />
<glyph unicode="&#xe1;" horiz-adv-x="1078" d="M101 286q0 134 93 213t256 79h305v81q0 118 -59 175.5t-189 57.5q-74 0 -124.5 -20.5t-103.5 -68.5q-31 -27 -63 -27q-27 0 -45 19t-18 47q0 49 96 112q105 66 259 66q195 0 295 -86t100 -251v-591q0 -49 -17 -74.5t-58 -25.5q-74 0 -74 100v2q-61 -59 -125.5 -82.5 t-163.5 -23.5q-104 0 -172 21.5t-115 70.5q-77 80 -77 206zM248 287q0 -173 232 -173q74 0 126.5 13.5t95.5 54.5q53 51 53 175v108h-289q-108 0 -163 -45.5t-55 -132.5zM456 1276q1 22 24 58l105 167q12 19 18 27.5t20 17.5t32 9q30 0 51 -21.5t20 -47.5q-1 -21 -25 -59 l-104 -166q-11 -18 -18 -27.5t-21.5 -18.5t-31.5 -9q-29 0 -50 22t-20 48z" />
<glyph unicode="&#xe4;" horiz-adv-x="1078" d="M101 286q0 134 93 213t256 79h305v81q0 118 -59 175.5t-189 57.5q-74 0 -124.5 -20.5t-103.5 -68.5q-31 -27 -63 -27q-27 0 -45 19t-18 47q0 49 96 112q105 66 259 66q195 0 295 -86t100 -251v-591q0 -49 -17 -74.5t-58 -25.5q-74 0 -74 100v2q-61 -59 -125.5 -82.5 t-163.5 -23.5q-104 0 -172 21.5t-115 70.5q-77 80 -77 206zM207 1320q0 38 27 65.5t65 27.5t65.5 -27.5t27.5 -65.5t-27.5 -65t-65.5 -27t-65 27t-27 65zM248 287q0 -173 232 -173q74 0 126.5 13.5t95.5 54.5q53 51 53 175v108h-289q-108 0 -163 -45.5t-55 -132.5zM644 1320 q0 38 27 65.5t65 27.5t65.5 -27.5t27.5 -65.5t-27.5 -65t-65.5 -27t-65 27t-27 65z" />
<glyph unicode="&#xe7;" horiz-adv-x="1001" d="M129 504q0 250 122.5 383t322.5 133q140 0 246 -83q41 -33 56.5 -51t15.5 -44t-20.5 -46.5t-47.5 -20.5q-16 0 -29.5 8t-41.5 31q-50 41 -89.5 57t-89.5 16q-151 0 -230 -112q-35 -50 -50 -112.5t-15 -158.5t15 -158.5t50 -112.5q79 -112 230 -112q51 0 92 16t87 57 q43 38 71 38q27 0 47.5 -20t20.5 -46q0 -25 -17.5 -46t-54.5 -50q-105 -82 -246 -82q-200 0 -322.5 133t-122.5 383zM361 -404q1 20 25 58l104 167q11 18 18 27t21 18t32 9q30 0 51 -21.5t20 -48.5q-1 -20 -25 -58l-104 -167q-11 -18 -18 -27t-21 -18t-32 -9q-30 0 -51 21.5 t-20 48.5z" />
<glyph unicode="&#xe9;" horiz-adv-x="1083" d="M129 504q0 247 111.5 381.5t304.5 134.5q190 0 300.5 -127t112.5 -340q0 -48 -20 -68q-19 -19 -66 -19h-594q0 -166 77 -257.5t222 -91.5q131 0 216 72q25 21 38.5 28.5t30.5 7.5q24 0 44 -19.5t20 -44.5q0 -49 -105 -115q-97 -58 -251 -58q-207 0 -324 128.5t-117 387.5 zM278 579h534q-4 96 -32 163q-29 70 -91 110.5t-144 40.5t-145 -41t-91 -110q-27 -64 -31 -163zM481 1276q1 20 25 58l104 167q11 18 18 27t21 18t32 9q30 0 51 -21.5t20 -47.5q-1 -21 -25 -59l-104 -166q-11 -18 -18 -27.5t-21.5 -18.5t-31.5 -9q-29 0 -50.5 22t-20.5 48z " />
<glyph unicode="&#xed;" horiz-adv-x="530" d="M190 92v823q0 101 75 101q41 0 58 -25.5t17 -75.5v-823q0 -49 -17 -74.5t-58 -25.5q-75 0 -75 100zM203 1276q1 22 24 58l105 167q11 18 18 27t21 18t31 9q30 0 51 -21.5t20 -47.5q-1 -23 -24 -59l-105 -166q-11 -18 -18 -27.5t-21.5 -18.5t-31.5 -9q-28 0 -49.5 22 t-20.5 48z" />
<glyph unicode="&#xf6;" horiz-adv-x="1089" d="M131 504q0 133 26 230t98 171q115 115 290 115t290 -115q72 -73 97.5 -170t25.5 -231q0 -133 -25.5 -231t-97.5 -171q-114 -114 -290 -114t-290 114q-72 73 -98 171t-26 231zM233 1320q0 38 27.5 65.5t65.5 27.5t65.5 -27.5t27.5 -65.5t-27.5 -65t-65.5 -27t-65.5 27 t-27.5 65zM281 504q0 -106 16.5 -184t64.5 -126q73 -73 183 -73q109 0 182 73q48 48 65 126.5t17 183.5t-17 183t-65 126q-74 74 -182 74q-109 0 -183 -74q-48 -48 -64.5 -125.5t-16.5 -183.5zM671 1320q0 38 27 65.5t65 27.5t65.5 -27.5t27.5 -65.5t-27.5 -65t-65.5 -27 t-65 27t-27 65z" />
<glyph unicode="&#xfd;" horiz-adv-x="893" d="M61 972q7 19 26.5 31.5t41.5 12.5q51 0 74 -72l243 -744l245 744q23 72 74 72q22 0 41.5 -12.5t26.5 -31.5q9 -25 -7 -73l-395 -1142q-26 -78 -72 -121q-71 -68 -185 -68q-46 0 -69 14t-23 52q0 67 78 67q58 0 93.5 27.5t58.5 96.5l64 190l-308 884q-16 48 -7 73z M385 1276q1 20 25 58l104 167q11 18 18 27t21 18t32 9q30 0 50.5 -21.5t19.5 -47.5q-1 -23 -24 -59l-105 -166q-12 -19 -18 -27.5t-20.5 -18t-31.5 -9.5q-29 0 -50.5 22t-20.5 48z" />
<glyph unicode="&#xfe;" horiz-adv-x="1121" d="M185 -358v1724q0 100 75 100q41 0 58 -25t17 -75v-475q59 74 126.5 101.5t158.5 27.5q157 0 245 -88q125 -125 125 -428t-125 -428q-88 -88 -245 -88q-91 0 -158.5 27.5t-126.5 101.5v-475q0 -50 -17 -75.5t-58 -25.5q-75 0 -75 101zM335 504q0 -66 5 -116.5t21 -103 t43 -86.5t73.5 -55.5t110.5 -21.5t110.5 21.5t73.5 55.5t43 86.5t21 103t5 116.5t-5 116.5t-21 103t-43 86.5t-73.5 55.5t-110.5 21.5t-110.5 -21.5t-73.5 -55.5t-43 -86.5t-21 -103t-5 -116.5z" />
<glyph unicode="&#xff;" horiz-adv-x="893" d="M61 972q7 19 26.5 31.5t41.5 12.5q51 0 74 -72l243 -744l245 744q23 72 74 72q22 0 41.5 -12.5t26.5 -31.5q9 -25 -7 -73l-395 -1142q-26 -78 -72 -121q-71 -68 -185 -68q-46 0 -69 14t-23 52q0 67 78 67q58 0 93.5 27.5t58.5 96.5l64 190l-308 884q-16 48 -7 73z M136 1320q0 38 27 65.5t65 27.5t66 -27.5t28 -65.5t-28 -65t-66 -27t-65 27t-27 65zM573 1320q0 38 27.5 65.5t65.5 27.5t65.5 -27.5t27.5 -65.5t-27.5 -65t-65.5 -27t-65.5 27t-27.5 65z" />
<glyph unicode="&#x2c6;" horiz-adv-x="1089" d="M282 1218q-45 45 15 105l191 190q28 28 57 28q28 0 56 -28l192 -190q60 -60 15 -105q-17 -17 -36 -19t-34.5 7t-34.5 28l-158 159l-159 -159q-19 -19 -34 -28t-34 -7t-36 19z" />
<glyph unicode="&#x2dc;" horiz-adv-x="1089" d="M220 1322q0 30 37 62q75 64 157 64q42 0 72.5 -10.5t73.5 -36.5q70 -42 114 -42q25 0 43.5 6.5t46.5 30.5q31 26 52 26q23 0 38 -15.5t15 -39.5q0 -31 -36 -62q-75 -64 -157 -64q-42 0 -73 10.5t-74 36.5q-70 42 -113 42q-25 0 -43.5 -6.5t-46.5 -30.5q-31 -26 -53 -26 t-37.5 16t-15.5 39z" />
<glyph unicode="&#x2000;" horiz-adv-x="824" />
<glyph unicode="&#x2001;" horiz-adv-x="1648" />
<glyph unicode="&#x2002;" horiz-adv-x="824" />
<glyph unicode="&#x2003;" horiz-adv-x="1648" />
<glyph unicode="&#x2004;" horiz-adv-x="549" />
<glyph unicode="&#x2005;" horiz-adv-x="412" />
<glyph unicode="&#x2006;" horiz-adv-x="274" />
<glyph unicode="&#x2007;" horiz-adv-x="274" />
<glyph unicode="&#x2008;" horiz-adv-x="206" />
<glyph unicode="&#x2009;" horiz-adv-x="329" />
<glyph unicode="&#x200a;" horiz-adv-x="91" />
<glyph unicode="&#x2010;" horiz-adv-x="872" d="M147 552q0 36 23 51t69 15h395q46 0 68.5 -15t22.5 -51q0 -67 -91 -67h-395q-92 0 -92 67z" />
<glyph unicode="&#x2011;" horiz-adv-x="872" d="M147 552q0 36 23 51t69 15h395q46 0 68.5 -15t22.5 -51q0 -67 -91 -67h-395q-92 0 -92 67z" />
<glyph unicode="&#x2012;" horiz-adv-x="872" d="M147 552q0 36 23 51t69 15h395q46 0 68.5 -15t22.5 -51q0 -67 -91 -67h-395q-92 0 -92 67z" />
<glyph unicode="&#x2013;" d="M99 552q0 36 22.5 51t68.5 15h689q46 0 68.5 -15t22.5 -51q0 -67 -91 -67h-689q-91 0 -91 67z" />
<glyph unicode="&#x2014;" horiz-adv-x="1869" d="M99 551q0 36 22.5 51t68.5 15h1489q46 0 68.5 -14.5t22.5 -51.5q0 -36 -22.5 -51.5t-68.5 -15.5h-1489q-91 0 -91 67z" />
<glyph unicode="&#x2026;" horiz-adv-x="1544" d="M160 111q0 47 34.5 81.5t81.5 34.5t82 -34.5t35 -81.5t-35 -82t-82 -35t-81.5 35t-34.5 82zM655 111q0 47 35 81.5t82 34.5t82 -34.5t35 -81.5t-35 -82t-82 -35t-82 35t-35 82zM1151 111q0 47 35 81.5t82 34.5t81.5 -34.5t34.5 -81.5t-34.5 -82t-81.5 -35t-82 35t-35 82z " />
<glyph unicode="&#x202f;" horiz-adv-x="329" />
<glyph unicode="&#x2039;" horiz-adv-x="712" d="M81 521l346 346q21 21 38 31.5t38 9t41 -21.5t21.5 -41t-9 -38t-31.5 -38l-247 -248l247 -248q21 -21 31.5 -38t9 -37.5t-21.5 -40.5q-15 -15 -30 -20t-30 -0.5t-28 13.5t-29 25z" />
<glyph unicode="&#x203a;" horiz-adv-x="712" d="M148.5 826q-4.5 15 0.5 30t20 30t30 20t30 0t28 -14t29 -25l346 -346l-346 -346q-21 -21 -38.5 -31.5t-38 -8.5t-40.5 22q-49 49 18 116l248 248l-248 248q-15 15 -24.5 28.5t-14 28.5z" />
<glyph unicode="&#x205f;" horiz-adv-x="412" />
<glyph unicode="&#x20ac;" horiz-adv-x="1423" d="M131 585q0 31 20 44t59 13h62v186h-62q-79 0 -79 58q0 31 20 44t59 13h65q7 140 38 223.5t108 160.5q141 143 362 143q248 0 392 -175q43 -52 68 -112.5t25 -99.5q0 -35 -20 -56t-53 -21q-36 0 -54 21t-31 60q-39 117 -123.5 180.5t-204.5 63.5q-149 0 -250 -104 q-49 -50 -70.5 -113t-27.5 -171h382q79 0 79 -57q0 -58 -79 -58h-386v-186h386q79 0 79 -57q0 -58 -79 -58h-383q6 -116 27 -180t72 -116q101 -104 250 -104q120 0 204.5 63.5t123.5 180.5q13 39 31 60.5t54 21.5q21 0 37.5 -10t26 -27.5t9.5 -40.5q0 -39 -25 -99.5 t-68 -112.5q-144 -175 -392 -175q-221 0 -362 143q-78 78 -109 164t-37 232h-65q-79 0 -79 58z" />
<glyph unicode="&#x2122;" horiz-adv-x="1717" d="M65 1405q0 53 72 53h475q73 0 73 -53t-73 -53h-179v-696q0 -81 -59 -81q-60 0 -60 81v696h-177q-72 0 -72 53zM831 656v704q0 52 14.5 75.5t55.5 23.5q28 0 44 -13q19 -16 42 -63l228 -455l229 455q23 47 42 63q16 13 44 13q41 0 55 -23.5t14 -75.5v-704q0 -81 -58 -81 t-58 81v558l-189 -370q-26 -53 -79 -53q-52 0 -78 53l-189 370v-558q0 -81 -58 -81q-59 0 -59 81z" />
<glyph unicode="&#xe000;" horiz-adv-x="1014" d="M0 0v1015h1015v-1015h-1015z" />
<glyph unicode="&#xfb01;" horiz-adv-x="1155" d="M72 950q0 58 79 58h70v184q0 118 66.5 194t189.5 76h27q47 0 70.5 -14t23.5 -50q0 -65 -94 -65q-133 0 -133 -146v-179h148q79 0 79 -58q0 -57 -79 -57h-148v-801q0 -100 -75 -100q-41 0 -58 25.5t-17 74.5v801h-70q-40 0 -59.5 13t-19.5 44zM788 1385q0 42 30 72t72 30 t71.5 -30t29.5 -72t-29.5 -71.5t-71.5 -29.5t-72 29.5t-30 71.5zM815 92v823q0 50 17 75.5t58 25.5q75 0 75 -101v-823q0 -100 -75 -100q-41 0 -58 25.5t-17 74.5z" />
<glyph unicode="&#xfb02;" horiz-adv-x="1239" d="M72 950q0 58 79 58h70v184q0 118 66.5 194t189.5 76h27q47 0 70.5 -14t23.5 -50q0 -65 -94 -65q-133 0 -133 -146v-179h148q79 0 79 -58q0 -57 -79 -57h-148v-801q0 -100 -75 -100q-41 0 -58 25.5t-17 74.5v801h-70q-40 0 -59.5 13t-19.5 44zM815 270v1096q0 50 16.5 75 t58.5 25q75 0 75 -100v-1091q0 -146 133 -146q47 0 70.5 -14t23.5 -50t-23.5 -50.5t-70.5 -14.5h-27q-123 0 -189.5 76t-66.5 194z" />
</font>
</defs>
</svg>
